<svg width="652" height="184" viewBox="0 0 652 184" fill="none" xmlns="http://www.w3.org/2000/svg">
<path d="M111.3 142.2V117.9H84.8C77.6 117.9 70.9 121.7 67.2 127.9L58.6 142.3H111.3V142.2Z" fill="#63D2F9"/>
<path d="M26.9 48.7V73.0999H96.7L111.3 48.7H26.9Z" fill="#4E5EE4"/>
<path d="M60.3 86.8L27 142.2H55.4L95.2 75.9H79.6C71.7 75.9 64.4 80 60.3 86.8Z" fill="#63B0F9"/>
<path d="M171.6 118.9C157.3 118.9 146.8 108.5 146.8 94.6001C146.8 80.8001 157.4 70.3 171.6 70.3C185.8 70.3 196.4 80.9001 196.4 94.6001C196.6 108.3 185.9 118.9 171.6 118.9ZM171.7 110.4C180.7 110.4 187.2 103.7 187.2 94.6001C187.2 85.6001 180.7 78.8 171.7 78.8C162.6 78.8 156.1 85.6001 156.1 94.6001C156.2 103.7 162.6 110.4 171.7 110.4ZM206.1 133.4V82.8H214.7V87.3H215.2C216.1 85.8 219.4 81.9001 225.8 81.9001C235.7 81.9001 242.5 89.3001 242.5 100.2C242.5 111.1 235.8 118.8 226.1 118.8C219.8 118.8 216.5 115.3 215.3 113.4H214.8V133.3H206.1V133.4ZM224.2 111C229.9 111 233.7 106.6 233.7 100.4C233.7 94.0001 229.9 89.8 224.1 89.8C218.3 89.8 214.7 94.4001 214.7 100.4C214.7 106.9 218.7 111 224.2 111ZM267.6 118.9C257.2 118.9 249.8 111.1 249.8 100.6C249.8 89.5001 257.3 81.9001 267.6 81.9001C279 81.9001 285.2 90.3001 285.2 100.2V102.9H258.3C258.6 108.3 262.3 111.9 267.9 111.9C272.2 111.9 275.5 109.9 276.7 107H284.8C283.1 114.2 276.7 118.9 267.6 118.9ZM258.4 96.8H276.8C276.4 92 272.7 88.9001 267.6 88.9001C262.7 88.9001 258.9 92.3 258.4 96.8ZM294.6 118V82.8H302.9V87.1001H303.4C304.8 84.5001 308.3 81.9001 313.4 81.9001C321.3 81.9001 326.2 87.5001 326.2 95.0001V118H317.4V97.3C317.4 93 314.6 90.1001 310.6 90.1001C306.4 90.1001 303.3 93.4001 303.3 97.9001V118H294.6ZM334.8 118V110L359.3 79.3V78.8H335.7V71.1001H370.5V79.0001L346 109.8V110.3H370.6V118H334.8ZM394.3 118.9C383.9 118.9 376.5 111.1 376.5 100.6C376.5 89.5001 384 81.9001 394.3 81.9001C405.7 81.9001 411.9 90.3001 411.9 100.2V102.9H385C385.3 108.3 389 111.9 394.6 111.9C398.9 111.9 402.2 109.9 403.4 107H411.5C409.8 114.2 403.5 118.9 394.3 118.9ZM385.1 96.8H403.5C403.1 92 399.4 88.9001 394.3 88.9001C389.4 88.9001 385.7 92.3 385.1 96.8ZM421.3 133.4V82.8H429.9V87.3H430.4C431.3 85.8 434.6 81.9001 441 81.9001C450.9 81.9001 457.7 89.3001 457.7 100.2C457.7 111.1 451 118.8 441.3 118.8C435 118.8 431.7 115.3 430.5 113.4H430V133.3H421.3V133.4ZM439.4 111C445.1 111 448.9 106.6 448.9 100.4C448.9 94.0001 445.1 89.8 439.3 89.8C433.5 89.8 429.9 94.4001 429.9 100.4C429.9 106.9 433.9 111 439.4 111ZM467.2 133.4V82.8H475.8V87.3H476.3C477.2 85.8 480.5 81.9001 486.9 81.9001C496.8 81.9001 503.6 89.3001 503.6 100.2C503.6 111.1 496.9 118.8 487.2 118.8C480.9 118.8 477.6 115.3 476.4 113.4H475.9V133.3H467.2V133.4ZM485.2 111C490.9 111 494.7 106.6 494.7 100.4C494.7 94.0001 490.9 89.8 485.1 89.8C479.3 89.8 475.7 94.4001 475.7 100.4C475.7 106.9 479.8 111 485.2 111ZM528.7 118.9C518.3 118.9 510.9 111.1 510.9 100.6C510.9 89.5001 518.4 81.9001 528.7 81.9001C540.1 81.9001 546.3 90.3001 546.3 100.2V102.9H519.4C519.7 108.3 523.4 111.9 529 111.9C533.3 111.9 536.6 109.9 537.8 107H545.9C544.1 114.2 537.8 118.9 528.7 118.9ZM519.4 96.8H537.8C537.4 92 533.7 88.9001 528.6 88.9001C523.7 88.9001 520 92.3 519.4 96.8ZM564.3 118C558.1 118 554.6 114.3 554.6 108.1V67.8H563.4V107.3C563.4 109.3 564.4 110.4 566.2 110.4H567.6V118H564.3ZM580.4 78.1001C577.2 78.1001 575 76.2001 575 73.0001C575 70.0001 577.2 68.0001 580.4 68.0001C583.6 68.0001 585.8 70.0001 585.8 73.0001C585.7 76.2001 583.5 78.1001 580.4 78.1001ZM576 118V82.8H584.8V118H576ZM595.4 118V82.8H603.7V87.1001H604.2C605.6 84.5001 609.1 81.9001 614.2 81.9001C622.1 81.9001 627 87.5001 627 95.0001V118H618.2V97.3C618.2 93 615.4 90.1001 611.4 90.1001C607.2 90.1001 604.1 93.4001 604.1 97.9001V118H595.4Z" fill="#282846"/>
</svg>
