<?xml version="1.0" encoding="UTF-8"?>
<svg id="Layer_1" data-name="Layer 1" xmlns="http://www.w3.org/2000/svg" viewBox="0 0 1962 450">
  <defs>
    <style>
      .cls-1 {
        fill: #4c7be7;
      }
    </style>
  </defs>
  <g>
    <polygon class="cls-1" points="150 0 0 0 0 150 75 75 150 0"/>
    <polygon class="cls-1" points="0 300 0 450 150 450 75 375 0 300"/>
    <polygon class="cls-1" points="450 450 450 300 150 225 300 450 450 450"/>
    <polygon class="cls-1" points="450 0 300 0 150 225 450 150 450 0"/>
  </g>
  <g>
    <path class="cls-1" d="M746.01,240.75l-59.5,65v91h-54.5V46.75h54.5v187l167-187h69.5l-141.5,154.5,153.5,195.51h-66.5l-122.5-156.01Z"/>
    <path class="cls-1" d="M932.01,271.25c0-75,51.5-132.5,129.5-132.5s128,56.5,128,127.5c0,7.5-.5,13.5-1.5,21h-204.5c3.5,41.5,32.5,71,83.5,71,37.5,0,61-18.5,71.5-40.5l48,14c-15.5,34-55,71.5-120.5,71.5-78.5,0-134-52.5-134-132.01ZM1138.01,251.75c-3-38.5-30.5-68-76.5-68s-74.51,32.5-78,68.5l154.5-.5Z"/>
    <path class="cls-1" d="M1377.01,142.25v49c-53.5-8-86,19-86,92v113.51h-52.5v-251.51h52.5v40c15-30.5,44.5-48.5,86-43Z"/>
    <path class="cls-1" d="M1657.5,249.25v147.5h-52v-138.01c0-44-21-71-62-71-44,0-72.5,33.5-72.5,84v125.01h-52.5v-251.51h52.5v37.5c17.5-25,46.5-44,86.51-44,64.5,0,100,42.5,100,110.5Z"/>
    <path class="cls-1" d="M1704.49,271.25c0-75,51.5-132.5,129.5-132.5s128,56.5,128,127.5c0,7.5-.5,13.5-1.5,21h-204.5c3.5,41.5,32.5,71,83.5,71,37.5,0,61-18.5,71.5-40.5l48,14c-15.5,34-55,71.5-120.5,71.5-78.5,0-134-52.5-134-132.01ZM1910.5,251.75c-3-38.5-30.5-68-76.5-68s-74.51,32.5-78,68.5l154.5-.5Z"/>
  </g>
</svg>