<?xml version="1.0" encoding="UTF-8"?>
<svg id="Layer_1" data-name="Layer 1" xmlns="http://www.w3.org/2000/svg" viewBox="0 0 500 100">
  <defs>
    <style>
      .cls-1 {
        fill: none;
      }
    </style>
  </defs>
  <path d="M205.2,87.79c-5.84,0-11.47-2.14-14.79-7.77h-1.93v6.17h-13.28V12.85h13.28v26.68h1.93c3.41-5.84,9.78-8.09,15.53-8.09,14.35,0,24.04,11.47,24.04,27.63s-10.64,28.7-24.78,28.7v.03h0ZM202.33,75.9c8.18,0,14.02-6.7,14.02-16.27s-5.96-16.27-14.02-16.27-13.82,6.37-13.82,16.27,5.84,16.27,13.82,16.27ZM254.53,87.79c-10.2,0-18.5-6.17-18.5-16.27s9.13-15.74,20.19-16.9l15.62-1.6v-2.96c0-4.56-3.74-7.77-10.32-7.77s-9.9,2.76-11.06,6.91h-12.75c1.27-10.11,9.66-17.76,23.8-17.76s22.65,6.58,22.65,19.45v25.94c0,3.29.33,7.86.53,9.13v.21h-12.75c-.12-1.81-.12-3.5-.12-5.31h-1.93c-3.29,5.31-9.04,6.91-15.42,6.91l.03.03h0ZM258.15,77.8c8.72,0,13.72-6.58,13.72-13.28v-2.67l-11.71,1.39c-7.23.86-10.73,2.96-10.73,7.65s3.62,6.91,8.72,6.91h0ZM316.11,87.79c-13.4,0-22.98-6.7-24.46-17.22h13.07c1.48,4.68,6.37,6.7,11.47,6.7s9.46-2.22,9.46-6.17-4.03-5.01-9.57-5.96l-5.63-.95c-10.64-1.81-17.22-6.29-17.22-15.83s9.13-16.9,21.79-16.9,20.52,5.75,22.74,15.74h-12.75c-1.48-3.94-5.42-5.51-9.9-5.51s-8.92,2.34-8.92,5.63,2.76,4.48,8.51,5.42l5.63.95c10.32,1.69,18.17,5.96,18.17,16.27s-9.37,17.88-22.44,17.88l.06-.06h0ZM371.81,87.79c-16.37,0-27.21-11.18-27.21-28.28s11.47-28.07,27.33-28.07,26.15,12.33,26.15,28.61v2.34h-40.5c.65,8.83,6.82,14.02,14.26,14.02s9.9-2.14,11.71-5.84h13.61c-2.76,9.99-12.66,17.22-25.32,17.22h-.03ZM385.09,53.58c-1.07-7.11-6.7-11.27-13.28-11.27s-12.75,4.03-14.02,11.27h27.33-.03Z"/>
  <path d="M104.82,86.22c-2.14,0-3.2-1.07-3.2-3.2v-46.78c0-2.14,1.07-3.2,3.2-3.2h46.78c2.14,0,3.2,1.07,3.2,3.2v46.78c0,2.14-1.07,3.2-3.2,3.2h-46.78Z"/>
  <rect class="cls-1" width="500" height="100"/>
</svg>