<?xml version="1.0" encoding="UTF-8"?>
<svg id="Layer_1" data-name="Layer 1" xmlns="http://www.w3.org/2000/svg" viewBox="0 0 500 100">
  <defs>
    <style>
      .cls-1 {
        fill: none;
      }

      .cls-2 {
        fill-rule: evenodd;
      }
    </style>
  </defs>
  <g>
    <path class="cls-2" d="M32.12,78.23c-4.11,0-7.75-2.66-9-6.57l-6.4-20.1h-3.93c-4.11,0-7.75-2.66-9-6.57l-3.8-11.94h14.25l-7.52-11.29h71.23l-7.52,11.29h14.25l-3.8,11.94c-1.24,3.91-4.88,6.57-9,6.57h-3.93l-6.4,20.1c-1.24,3.91-4.88,6.57-9,6.57h-20.45ZM27.29,46.08c0,3.03,2.27,5.49,5.07,5.49s5.07-2.46,5.07-5.49-2.27-5.49-5.07-5.49-5.07,2.46-5.07,5.49h0ZM57.41,46.08c0,3.03-2.27,5.49-5.07,5.49s-5.07-2.46-5.07-5.49,2.27-5.49,5.07-5.49,5.07,2.46,5.07,5.49h0Z"/>
    <path d="M500,71.5h-8.7V28.01h8.7v43.49Z"/>
    <path d="M469.29,71.87c-2.82,0-5.42-.7-7.79-2.11-2.38-1.45-4.27-3.38-5.68-5.8-1.41-2.46-2.11-5.13-2.11-8.03s.7-5.56,2.11-7.97c1.41-2.46,3.3-4.39,5.68-5.8,2.38-1.45,4.97-2.17,7.79-2.17h.06c2.82,0,5.42.72,7.79,2.17,2.38,1.41,4.25,3.34,5.62,5.8,1.41,2.46,2.11,5.11,2.11,7.97s-.71,5.52-2.11,7.97c-1.37,2.46-3.24,4.41-5.62,5.86-2.38,1.41-4.97,2.11-7.79,2.11h-.06ZM469.35,63.17c1.25,0,2.4-.32,3.44-.97,1.05-.64,1.88-1.51,2.48-2.6.6-1.13.91-2.36.91-3.68s-.32-2.5-.97-3.62c-.6-1.13-1.43-2.01-2.48-2.66-1.05-.64-2.18-.97-3.38-.97h-.06c-1.25,0-2.4.32-3.44.97-1.05.64-1.89,1.53-2.54,2.66-.6,1.13-.91,2.34-.91,3.62s.3,2.5.91,3.62c.64,1.13,1.49,2.01,2.54,2.66,1.05.64,2.19.97,3.44.97h.06Z"/>
    <path d="M439.96,52.23c-.36-1.21-1.09-2.17-2.18-2.9-1.09-.77-2.3-1.15-3.62-1.15-1.41,0-2.64.36-3.68,1.09s-1.85,1.67-2.42,2.84c-.52,1.17-.78,2.44-.78,3.81s.28,2.6.84,3.81c.6,1.17,1.43,2.11,2.48,2.84s2.23,1.09,3.56,1.09c1.45,0,2.74-.38,3.87-1.15,1.13-.81,1.81-1.79,2.05-2.96h8.58c-.08,1.69-.76,3.5-2.05,5.44-1.25,1.93-2.98,3.56-5.2,4.89-2.17,1.33-4.59,1.99-7.25,1.99-2.82,0-5.41-.7-7.79-2.11-2.38-1.45-4.27-3.38-5.68-5.8-1.41-2.46-2.11-5.13-2.11-8.03s.71-5.56,2.11-7.97c1.41-2.46,3.3-4.39,5.68-5.8,2.38-1.45,4.97-2.17,7.79-2.17,2.98,0,5.54.64,7.67,1.93,2.18,1.25,3.85,2.82,5.01,4.71,1.17,1.89,1.81,3.77,1.93,5.62h-8.82Z"/>
    <path d="M397.73,71.87c-2.82,0-5.42-.7-7.79-2.11-2.38-1.45-4.27-3.38-5.68-5.8-1.41-2.46-2.11-5.13-2.11-8.03s.7-5.56,2.11-7.97c1.41-2.46,3.3-4.39,5.68-5.8,2.38-1.45,4.97-2.17,7.79-2.17h.06c2.82,0,5.42.72,7.79,2.17,2.38,1.41,4.25,3.34,5.62,5.8,1.41,2.46,2.11,5.11,2.11,7.97s-.7,5.52-2.11,7.97c-1.37,2.46-3.24,4.41-5.62,5.86-2.38,1.41-4.97,2.11-7.79,2.11h-.06ZM397.79,63.17c1.25,0,2.39-.32,3.44-.97,1.05-.64,1.87-1.51,2.48-2.6.6-1.13.91-2.36.91-3.68s-.32-2.5-.97-3.62c-.6-1.13-1.43-2.01-2.48-2.66-1.05-.64-2.18-.97-3.38-.97h-.06c-1.25,0-2.4.32-3.44.97-1.05.64-1.89,1.53-2.54,2.66-.6,1.13-.91,2.34-.91,3.62s.3,2.5.91,3.62c.64,1.13,1.49,2.01,2.54,2.66,1.05.64,2.19.97,3.44.97h.06Z"/>
    <path d="M374.64,63.95c1.21,0,2.31-.08,3.32-.24v7.43c-1.45.48-3.1.72-4.95.72-2.42,0-4.43-.34-6.04-1.03-1.57-.68-2.78-1.83-3.62-3.44-.8-1.61-1.21-3.79-1.21-6.52v-12.93h-4.95v-7.61h4.95v-8.88h8.7v8.88h7.13v7.61h-7.13v12.81c0,1.09.34,1.89,1.02,2.42.69.52,1.61.79,2.78.79h0Z"/>
    <path d="M338.72,71.87c-2.82,0-5.41-.7-7.79-2.11-2.38-1.45-4.27-3.38-5.68-5.8-1.41-2.46-2.11-5.13-2.11-8.03s.71-5.56,2.11-7.97c1.41-2.46,3.3-4.39,5.68-5.8,2.38-1.45,4.97-2.17,7.79-2.17h.06c2.82,0,5.42.72,7.79,2.17,2.38,1.41,4.25,3.34,5.62,5.8,1.41,2.46,2.11,5.11,2.11,7.97s-.71,5.52-2.11,7.97c-1.37,2.46-3.24,4.41-5.62,5.86-2.38,1.41-4.97,2.11-7.79,2.11h-.06ZM338.79,63.17c1.25,0,2.4-.32,3.44-.97,1.05-.64,1.87-1.51,2.48-2.6.6-1.13.91-2.36.91-3.68s-.32-2.5-.97-3.62c-.6-1.13-1.43-2.01-2.48-2.66-1.05-.64-2.17-.97-3.38-.97h-.06c-1.25,0-2.39.32-3.44.97-1.05.64-1.89,1.53-2.54,2.66-.6,1.13-.91,2.34-.91,3.62s.3,2.5.91,3.62c.64,1.13,1.49,2.01,2.54,2.66,1.05.64,2.19.97,3.44.97h.06Z"/>
    <path d="M316.29,39.97c.6,0,1.63.06,3.08.18.08.04.16.06.24.06h.24v8.7h-.12s-.08-.02-.12-.06c-.48-.08-1.13-.16-1.93-.24-.8-.08-1.63-.12-2.48-.12-2.38,0-4.21.66-5.5,1.99-1.29,1.29-1.93,3.3-1.93,6.04v14.98h-8.7v-31.17h8.7v4.17c.93-1.53,2.11-2.66,3.56-3.38,1.49-.77,3.14-1.15,4.95-1.15h0Z"/>
    <path d="M261.3,28.01h8.7v43.49h-8.7V28.01ZM279.12,28.01c2.66,0,5.05.68,7.19,2.05,2.13,1.37,3.81,3.14,5.01,5.32,1.25,2.17,1.87,4.45,1.87,6.83s-.6,4.65-1.81,6.83c-1.21,2.17-2.9,3.95-5.07,5.32-2.13,1.37-4.51,2.05-7.13,2.05h-17.88v-8.7h17.7c1.09,0,2.03-.26,2.84-.79.85-.52,1.49-1.21,1.93-2.05.44-.85.66-1.73.66-2.66s-.22-1.81-.66-2.66c-.44-.85-1.09-1.53-1.93-2.05-.81-.52-1.75-.79-2.84-.79h-17.7v-8.7h17.82Z"/>
    <path d="M237.48,28.01l-11.84,43.49h-9l-5.8-21.75c-.16-.64-.34-1.33-.54-2.05-.16-.77-.34-1.53-.54-2.3-.16-.77-.32-1.51-.48-2.24s-.32-1.43-.48-2.11h-.06c-.16.64-.34,1.33-.54,2.05-.16.68-.32,1.41-.48,2.17-.2.77-.4,1.53-.6,2.3-.16.77-.34,1.49-.54,2.17l-5.8,21.75h-9l-11.84-43.49h8.94l5.68,21.75c.16.6.32,1.27.48,1.99.16.68.32,1.39.48,2.11s.32,1.45.48,2.17c.16.68.28,1.35.36,1.99h.06c.16-.77.34-1.55.54-2.36.2-.85.4-1.71.6-2.6.16-.6.3-1.17.42-1.69.16-.56.3-1.11.42-1.63l5.8-21.75h9l5.8,21.75c.12.44.24.91.36,1.39s.24.99.36,1.51c.36,1.41.81,3.2,1.33,5.38h.06c.08-.44.16-.89.24-1.33.08-.44.18-.91.3-1.39.36-1.85.79-3.7,1.27-5.56l5.62-21.75h8.94Z"/>
    <path d="M164.41,71.87c-2.82,0-5.42-.7-7.79-2.11-2.38-1.45-4.27-3.38-5.68-5.8-1.41-2.46-2.11-5.13-2.11-8.03s.7-5.56,2.11-7.97c1.41-2.46,3.3-4.39,5.68-5.8,2.38-1.45,4.97-2.17,7.79-2.17h.06c2.82,0,5.42.72,7.79,2.17,2.38,1.41,4.25,3.34,5.62,5.8,1.41,2.46,2.11,5.11,2.11,7.97s-.7,5.52-2.11,7.97c-1.37,2.46-3.24,4.41-5.62,5.86-2.38,1.41-4.97,2.11-7.79,2.11h-.06ZM164.47,63.17c1.25,0,2.4-.32,3.44-.97,1.05-.64,1.87-1.51,2.48-2.6.6-1.13.91-2.36.91-3.68s-.32-2.5-.97-3.62c-.6-1.13-1.43-2.01-2.48-2.66-1.05-.64-2.17-.97-3.38-.97h-.06c-1.25,0-2.4.32-3.44.97-1.05.64-1.89,1.53-2.54,2.66-.6,1.13-.91,2.34-.91,3.62s.3,2.5.91,3.62c.64,1.13,1.49,2.01,2.54,2.66,1.05.64,2.19.97,3.44.97h.06Z"/>
    <path d="M124.53,71.87c-3.99,0-7.67-.99-11.05-2.96-3.38-2.01-6.08-4.71-8.09-8.09-1.97-3.38-2.96-7.07-2.96-11.05s.99-7.67,2.96-11.05c2.01-3.38,4.71-6.06,8.09-8.03,3.38-2.01,7.07-3.02,11.05-3.02,3.58,0,6.77.83,9.54,2.48,2.82,1.61,5.05,3.66,6.7,6.16,1.65,2.46,2.68,4.97,3.08,7.55h-9c-.36-1.41-1.07-2.68-2.11-3.81-1.05-1.17-2.3-2.07-3.75-2.72-1.45-.64-2.94-.97-4.47-.97-2.46,0-4.71.6-6.77,1.81-2.01,1.21-3.62,2.84-4.83,4.89-1.21,2.01-1.81,4.25-1.81,6.7s.6,4.71,1.81,6.77c1.21,2.01,2.82,3.62,4.83,4.83,2.05,1.21,4.31,1.81,6.77,1.81s4.59-.64,6.52-1.93c1.93-1.29,3.22-3.04,3.87-5.26h9c-.4,2.78-1.45,5.38-3.14,7.79-1.69,2.42-3.95,4.37-6.77,5.86-2.78,1.49-5.94,2.24-9.48,2.24h0Z"/>
  </g>
  <rect class="cls-1" width="500" height="100"/>
</svg>