<?xml version="1.0" encoding="UTF-8"?>
<svg id="Layer_1" data-name="Layer 1" xmlns="http://www.w3.org/2000/svg" viewBox="0 0 500.15 100">
  <defs>
    <style>
      .cls-1 {
        fill: none;
      }
    </style>
  </defs>
  <g>
    <path d="M88.36,45.86c0,29.09-17.86,38.43-27.33,30.18-7.71-6.77-10.01-21.11-21.65-22.6-14.75-1.76-16.1,17.86-25.85,17.86C2.17,71.3,0,54.92,0,46.4s2.44-20.43,12.04-20.43c11.23,0,11.91,16.91,25.98,15.97,13.94-.95,14.21-18.54,23.41-25.98,7.98-6.63,26.93.41,26.93,29.91Z"/>
    <path d="M130.31,72.92V16.49h5.41v24.49h33.02v-24.49h5.28v56.56h-5.28v-27.47h-33.02v27.47h-5.41v-.14Z"/>
    <path d="M188.09,90.11l7.31-18.13-15.83-38.02h5.55l10.42,25.71c.54,1.62,1.49,3.65,2.57,6.22.14-.41.27-.81.54-1.22.14-.41.27-.81.54-1.22.27-.68.68-1.35.81-2.03.14-.68.41-1.22.68-1.89l9.74-25.71h5.28l-22.19,56.16h-5.41v.14Z"/>
    <path d="M220.84,90.11v-56.16h5.01v7.17c1.35-2.44,3.11-4.47,5.68-5.95,2.44-1.49,5.14-2.3,8.25-2.3,3.65,0,6.77.95,9.47,2.71,2.71,1.76,4.74,4.19,6.22,7.31,1.49,3.11,2.17,6.63,2.17,10.55s-.68,7.58-2.17,10.69c-1.49,3.11-3.65,5.55-6.22,7.44-2.71,1.76-5.82,2.71-9.2,2.71-2.98,0-5.55-.68-8.12-2.17-2.44-1.35-4.33-3.52-5.82-6.22v24.36h-5.28v-.14ZM238.97,70.08c2.71,0,5.01-.68,7.04-2.17,2.03-1.49,3.52-3.38,4.74-5.95,1.08-2.57,1.62-5.41,1.62-8.66s-.54-6.09-1.62-8.53c-1.08-2.44-2.71-4.47-4.74-5.82s-4.33-2.03-7.04-2.03-4.87.68-6.9,2.03-3.65,3.25-4.74,5.82c-1.08,2.44-1.76,5.41-1.76,8.66s.54,6.22,1.76,8.66c1.08,2.57,2.71,4.47,4.74,5.95s4.33,2.03,6.9,2.03Z"/>
    <path d="M281.6,74.14c-3.65,0-6.9-.81-9.74-2.44-2.84-1.62-5.01-4.06-6.5-7.17-1.49-3.11-2.3-6.9-2.3-11.23,0-3.92.81-7.44,2.44-10.55,1.62-3.11,3.79-5.55,6.5-7.31,2.71-1.76,5.82-2.71,9.2-2.71,3.65,0,6.77.81,9.47,2.57,2.57,1.62,4.6,4.06,5.95,7.04,1.35,3.11,2.03,6.63,2.03,10.69v1.08h-30.58c0,3.38.54,6.22,1.76,8.66,1.22,2.44,2.71,4.19,4.74,5.41,2.03,1.22,4.47,1.89,7.04,1.89,3.11,0,5.68-.68,7.85-2.17,2.03-1.49,3.38-3.79,3.79-6.77h5.01c-.41,2.44-1.22,4.74-2.71,6.63-1.35,1.89-3.25,3.52-5.68,4.6-2.17,1.08-5.01,1.76-8.25,1.76ZM293.23,50.32c0-4.06-1.08-7.31-3.25-9.74-2.17-2.44-5.01-3.65-8.8-3.65s-6.63,1.22-8.93,3.79-3.65,5.68-4.06,9.61h25.03Z"/>
    <path d="M306.36,72.92v-38.97h5.01v7.85c1.08-2.57,2.71-4.74,5.14-6.36,2.3-1.62,5.01-2.57,8.12-2.57.81,0,1.49,0,2.17.14v4.87c-.95-.14-1.76-.14-2.44-.14-2.57,0-4.87.54-6.77,1.76-1.89,1.22-3.38,2.84-4.47,5.01-1.08,2.17-1.62,4.74-1.62,7.58v20.97h-5.14v-.14Z"/>
    <path d="M339.24,71.84l-.27,1.08h-15.83l.27-1.08c4.33-.41,6.22-1.76,6.9-5.01l8.93-42.08c.95-4.33-.41-5.01-5.01-4.06l.27-1.08,9.74-3.25h1.08l-10.69,50.61c-.81,3.11.41,4.47,4.6,4.87Z"/>
    <path d="M357.24,71.84l-.27,1.08h-15.97l.27-1.08c4.33-.41,6.22-1.76,6.9-5.01l5.41-25.71c.95-4.33-.27-5.01-5.01-4.06l.27-1.08,9.74-3.25h1.08l-7.17,34.1c-.68,3.25.54,4.6,4.74,5.01ZM359.95,18.52c2.17,0,3.52,1.62,3.25,3.79-.27,2.17-2.17,3.65-4.19,3.65-2.17,0-3.65-1.62-3.38-3.65.14-2.17,2.03-3.79,4.33-3.79Z"/>
    <path d="M384.57,84.29l4.33-20.16c-2.71,5.95-8.53,10.01-14.48,10.01-9.74,0-14.34-9.2-11.37-22.87,2.03-10.01,10.96-18.54,21.52-18.54,4.87,0,8.93,2.17,10.55,5.41l3.65-5.41h1.08l-11.1,51.56c-.81,3.52,2.03,4.19,4.87,4.74l-.27,1.08h-18.27l.27-1.08c5.41-.54,8.53-1.22,9.2-4.74ZM377.13,71.3c5.01,0,10.01-4.33,12.45-9.47l3.25-15.43c.81-5.55-1.76-11.37-9.47-11.37-7.31,0-13.53,6.63-15.56,16.24-2.44,11.77,1.08,20.03,9.34,20.03Z"/>
    <path d="M454.4,71.84l-.27,1.08h-15.97l.27-1.08c4.33-.41,6.22-1.76,6.9-5.01l5.41-25.71c.95-4.33-.27-5.01-5.01-4.06l.27-1.08,9.74-3.25h1.08l-7.17,34.1c-.68,3.25.54,4.6,4.74,5.01ZM457.1,18.52c2.17,0,3.52,1.62,3.25,3.79-.27,2.17-2.17,3.65-4.19,3.65-2.17,0-3.65-1.62-3.38-3.65.27-2.17,2.17-3.79,4.33-3.79Z"/>
    <path d="M431.8,66.7l3.65-17.19,3.52-16.78h-1.08l-9.74,3.25-.27,1.08c4.6-.95,5.82-.27,5.01,4.06l-4.6,21.92c-5.14,4.74-8.66,7.58-13.13,7.58-5.41,0-8.25-3.65-6.9-10.01l5.95-27.88h-1.08l-9.74,3.25-.27,1.08c4.6-.95,5.95-.27,5.01,4.06l-4.19,20.03c-1.62,7.44,2.17,12.86,9.07,12.86,4.6,0,8.66-2.57,15.02-9.34l-.27,1.35-1.35,6.63h10.15l.27-1.22c-4.47-.14-5.68-1.35-5.01-4.74Z"/>
    <path d="M496.89,31.24l3.11-15.02h-1.08l-9.74,3.25-.27,1.08c4.6-.95,5.82-.27,5.01,4.06l-2.71,12.86c-1.76-2.84-5.55-4.74-9.88-4.74-10.69,0-19.49,8.53-21.79,19.22-2.71,12.99,1.76,22.19,11.5,22.19,6.09,0,11.91-4.19,14.61-10.15l-.68,3.38-1.22,5.55,10.15-.14.27-1.08c-4.19-.41-5.41-1.76-4.74-5.01l7.44-35.45ZM486.06,61.69c-2.3,5.28-7.44,9.61-12.45,9.61-8.25,0-11.77-8.25-9.47-19.35,2.17-10.42,8.53-16.91,15.83-16.91,7.85,0,10.42,6.22,9.34,11.77l-.41,1.76-2.84,13.13Z"/>
  </g>
  <rect class="cls-1" x=".15" width="500" height="100"/>
</svg>