<svg fill="none" height="400" viewBox="0 0 1630 400" width="1630" xmlns="http://www.w3.org/2000/svg"><g fill="#23191a"><path clip-rule="evenodd" d="m104.677 292c-13.4067 0-25.2691-8.655-29.3224-21.395l-20.8385-65.494h-12.8119c-13.4063 0-25.2687-8.655-29.322-21.395l-12.3822-38.916h46.4439l-24.4962-36.8h232.1043l-24.496 36.8h46.444l-12.382 38.916c-4.053 12.74-15.916 21.395-29.322 21.395h-12.812l-20.839 65.494c-4.053 12.74-15.915 21.395-29.322 21.395zm-15.7437-104.778c0 9.88 7.3991 17.889 16.5267 17.889 9.127 0 16.526-8.009 16.526-17.889s-7.399-17.889-16.526-17.889c-9.1276 0-16.5267 8.009-16.5267 17.889zm98.1337 0c0 9.88-7.399 17.889-16.526 17.889-9.128 0-16.527-8.009-16.527-17.889s7.399-17.889 16.527-17.889c9.127 0 16.526 8.009 16.526 17.889z" fill-rule="evenodd"/><path d="m1629.26 270.07h-28.34v-141.718h28.34z"/><path d="m1529.2 271.251c-9.19 0-17.65-2.297-25.39-6.889-7.75-4.724-13.91-11.023-18.51-18.896-4.59-8.004-6.88-16.731-6.88-26.179 0-9.447 2.29-18.108 6.88-25.981 4.6-8.005 10.76-14.303 18.51-18.896 7.74-4.724 16.2-7.086 25.39-7.086h.19c9.19 0 17.65 2.362 25.4 7.086 7.74 4.593 13.84 10.891 18.3 18.896 4.59 8.004 6.89 16.665 6.89 25.981 0 9.317-2.3 17.978-6.89 25.982-4.46 8.005-10.56 14.369-18.3 19.093-7.75 4.592-16.21 6.889-25.4 6.889zm.19-28.344c4.07 0 7.81-1.05 11.22-3.149 3.42-2.1 6.11-4.921 8.07-8.464 1.97-3.674 2.96-7.676 2.96-12.007 0-4.199-1.05-8.135-3.15-11.809-1.97-3.675-4.66-6.561-8.07-8.661-3.41-2.099-7.09-3.149-11.03-3.149h-.19c-4.07 0-7.81 1.05-11.22 3.149-3.41 2.1-6.17 4.986-8.27 8.661-1.97 3.674-2.95 7.61-2.95 11.809 0 4.2.98 8.136 2.95 11.81 2.1 3.674 4.86 6.561 8.27 8.661 3.41 2.099 7.15 3.149 11.22 3.149z"/><path d="m1433.61 207.281c-1.18-3.937-3.54-7.086-7.09-9.448-3.54-2.493-7.48-3.74-11.81-3.74-4.59 0-8.59 1.181-12 3.543s-6.04 5.446-7.88 9.251c-1.7 3.806-2.55 7.939-2.55 12.4 0 4.331.91 8.464 2.75 12.401 1.97 3.805 4.66 6.889 8.07 9.251s7.28 3.543 11.61 3.543c4.73 0 8.93-1.247 12.6-3.74 3.68-2.624 5.91-5.839 6.69-9.645h27.95c-.26 5.512-2.49 11.416-6.69 17.715-4.07 6.299-9.71 11.613-16.93 15.943-7.08 4.331-14.96 6.496-23.62 6.496-9.18 0-17.64-2.297-25.39-6.889-7.74-4.724-13.91-11.023-18.5-18.896-4.59-8.004-6.89-16.731-6.89-26.179 0-9.447 2.3-18.108 6.89-25.981 4.59-8.005 10.76-14.303 18.5-18.896 7.75-4.724 16.21-7.086 25.39-7.086 9.71 0 18.05 2.1 25 6.299 7.09 4.068 12.53 9.185 16.34 15.353 3.8 6.167 5.9 12.269 6.3 18.305z"/><path d="m1296 271.251c-9.19 0-17.65-2.297-25.39-6.889-7.74-4.724-13.91-11.023-18.5-18.896-4.6-8.004-6.89-16.731-6.89-26.179 0-9.447 2.29-18.108 6.89-25.981 4.59-8.005 10.76-14.303 18.5-18.896 7.74-4.724 16.2-7.086 25.39-7.086h.2c9.18 0 17.65 2.362 25.39 7.086 7.74 4.593 13.84 10.891 18.3 18.896 4.6 8.004 6.89 16.665 6.89 25.981 0 9.317-2.29 17.978-6.89 25.982-4.46 8.005-10.56 14.369-18.3 19.093-7.74 4.592-16.21 6.889-25.39 6.889zm.2-28.344c4.06 0 7.8-1.05 11.22-3.149 3.41-2.1 6.1-4.921 8.07-8.464 1.96-3.674 2.95-7.676 2.95-12.007 0-4.199-1.05-8.135-3.15-11.809-1.97-3.675-4.66-6.561-8.07-8.661-3.41-2.099-7.09-3.149-11.02-3.149h-.2c-4.07 0-7.81 1.05-11.22 3.149-3.41 2.1-6.17 4.986-8.27 8.661-1.96 3.674-2.95 7.61-2.95 11.809 0 4.2.99 8.136 2.95 11.81 2.1 3.674 4.86 6.561 8.27 8.661 3.41 2.099 7.15 3.149 11.22 3.149z"/><path d="m1220.78 245.466c3.94 0 7.54-.262 10.82-.787v24.21c-4.72 1.574-10.1 2.362-16.14 2.362-7.87 0-14.43-1.116-19.68-3.346-5.12-2.231-9.05-5.971-11.81-11.22-2.62-5.248-3.94-12.334-3.94-21.257v-42.122h-16.14v-24.801h16.14v-28.934h28.35v28.934h23.22v24.801h-23.22v41.728c0 3.543 1.11 6.167 3.34 7.873 2.24 1.706 5.25 2.559 9.06 2.559z"/><path d="m1103.74 271.251c-9.18 0-17.64-2.297-25.39-6.889-7.74-4.724-13.91-11.023-18.5-18.896-4.59-8.004-6.89-16.731-6.89-26.179 0-9.447 2.3-18.108 6.89-25.981 4.59-8.005 10.76-14.303 18.5-18.896 7.75-4.724 16.21-7.086 25.39-7.086h.2c9.19 0 17.65 2.362 25.39 7.086 7.74 4.593 13.85 10.891 18.31 18.896 4.59 8.004 6.89 16.665 6.89 25.981 0 9.317-2.3 17.978-6.89 25.982-4.46 8.005-10.57 14.369-18.31 19.093-7.74 4.592-16.2 6.889-25.39 6.889zm.2-28.344c4.07 0 7.81-1.05 11.22-3.149 3.41-2.1 6.1-4.921 8.07-8.464 1.97-3.674 2.95-7.676 2.95-12.007 0-4.199-1.05-8.135-3.15-11.809-1.96-3.675-4.65-6.561-8.07-8.661-3.41-2.099-7.08-3.149-11.02-3.149h-.2c-4.06 0-7.8 1.05-11.21 3.149-3.42 2.1-6.17 4.986-8.27 8.661-1.97 3.674-2.95 7.61-2.95 11.809 0 4.2.98 8.136 2.95 11.81 2.1 3.674 4.85 6.561 8.27 8.661 3.41 2.099 7.15 3.149 11.21 3.149z"/><path d="m1030.64 167.324c1.97 0 5.32.197 10.04.591.27.131.53.196.79.196h.79v28.344c-.13 0-.26 0-.4 0-.13 0-.26-.066-.39-.197-1.57-.262-3.67-.525-6.3-.787-2.62-.262-5.31-.394-8.07-.394-7.74 0-13.71 2.165-17.91 6.496-4.2 4.199-6.3 10.76-6.3 19.683v48.814h-28.342v-101.565h28.342v13.581c3.02-4.986 6.89-8.66 11.61-11.022 4.86-2.493 10.24-3.74 16.14-3.74z"/><path d="m851.445 128.352h28.344v141.718h-28.344zm58.065 0c8.661 0 16.468 2.231 23.423 6.692 6.955 4.462 12.4 10.235 16.337 17.321 4.068 7.086 6.102 14.5 6.102 22.242s-1.969 15.156-5.905 22.242c-3.937 7.086-9.448 12.86-16.534 17.321-6.955 4.461-14.697 6.692-23.226 6.692h-58.262v-28.343h57.671c3.543 0 6.627-.853 9.251-2.559 2.756-1.706 4.856-3.937 6.299-6.692 1.443-2.756 2.165-5.643 2.165-8.661s-.722-5.905-2.165-8.661c-1.443-2.755-3.543-4.986-6.299-6.692-2.624-1.706-5.708-2.559-9.251-2.559h-57.671v-28.343z"/><path d="m773.819 128.352-38.579 141.718h-29.327l-18.896-70.859c-.525-2.1-1.116-4.33-1.772-6.692-.525-2.494-1.115-4.987-1.771-7.48-.525-2.493-1.05-4.921-1.575-7.283s-1.05-4.658-1.574-6.889h-.197c-.525 2.1-1.116 4.331-1.772 6.692-.525 2.231-1.049 4.593-1.574 7.086-.657 2.494-1.313 4.987-1.969 7.48-.525 2.493-1.115 4.855-1.771 7.086l-18.896 70.859h-29.328l-38.578-141.718h29.13l18.503 70.859c.524 1.968 1.049 4.133 1.574 6.495.525 2.231 1.05 4.527 1.575 6.889s1.05 4.724 1.574 7.086c.525 2.231.919 4.396 1.181 6.496h.197c.525-2.494 1.116-5.052 1.772-7.677.656-2.755 1.312-5.577 1.968-8.463.525-1.969.984-3.806 1.378-5.512.525-1.837.984-3.608 1.378-5.314l18.895-70.859h29.328l18.896 70.859c.394 1.443.787 2.952 1.181 4.527s.787 3.215 1.181 4.921c1.181 4.592 2.624 10.432 4.33 17.518h.197c.262-1.444.525-2.887.787-4.331.263-1.443.591-2.952.985-4.527 1.18-6.036 2.558-12.072 4.133-18.108l18.305-70.859z"/><path d="m535.742 271.251c-9.185 0-17.649-2.297-25.391-6.889-7.742-4.724-13.909-11.023-18.502-18.896-4.592-8.004-6.889-16.731-6.889-26.179 0-9.447 2.297-18.108 6.889-25.981 4.593-8.005 10.76-14.303 18.502-18.896 7.742-4.724 16.206-7.086 25.391-7.086h.197c9.186 0 17.649 2.362 25.391 7.086 7.742 4.593 13.844 10.891 18.306 18.896 4.592 8.004 6.889 16.665 6.889 25.981 0 9.317-2.297 17.978-6.889 25.982-4.462 8.005-10.564 14.369-18.306 19.093-7.742 4.592-16.205 6.889-25.391 6.889zm.197-28.344c4.068 0 7.808-1.05 11.22-3.149 3.411-2.1 6.101-4.921 8.07-8.464 1.968-3.674 2.952-7.676 2.952-12.007 0-4.199-1.05-8.135-3.149-11.809-1.968-3.675-4.658-6.561-8.07-8.661-3.412-2.099-7.086-3.149-11.023-3.149h-.197c-4.067 0-7.807 1.05-11.219 3.149-3.412 2.1-6.167 4.986-8.267 8.661-1.968 3.674-2.952 7.61-2.952 11.809 0 4.2.984 8.136 2.952 11.81 2.1 3.674 4.855 6.561 8.267 8.661 3.412 2.099 7.152 3.149 11.219 3.149z"/><path d="m405.793 271.251c-12.991 0-24.998-3.215-36.02-9.645-11.023-6.561-19.815-15.353-26.376-26.375-6.429-11.023-9.644-23.029-9.644-36.02s3.215-24.998 9.644-36.02c6.561-11.023 15.353-19.749 26.376-26.179 11.022-6.561 23.029-9.841 36.02-9.841 11.678 0 22.045 2.69 31.099 8.07 9.185 5.249 16.468 11.941 21.848 20.077 5.38 8.004 8.726 16.205 10.039 24.603h-29.328c-1.181-4.592-3.478-8.726-6.889-12.4-3.412-3.805-7.48-6.758-12.204-8.857-4.724-2.1-9.579-3.15-14.565-3.15-8.005 0-15.353 1.969-22.045 5.905-6.561 3.937-11.81 9.251-15.747 15.944-3.936 6.561-5.905 13.843-5.905 21.848 0 8.004 1.969 15.353 5.905 22.045 3.937 6.561 9.186 11.81 15.747 15.746 6.692 3.937 14.04 5.905 22.045 5.905 7.873 0 14.959-2.099 21.257-6.298 6.299-4.199 10.498-9.907 12.598-17.125h29.327c-1.312 9.055-4.724 17.518-10.235 25.392-5.511 7.873-12.86 14.237-22.045 19.092-9.054 4.855-19.355 7.283-30.902 7.283z"/></g></svg>